<?xml version="1.0" encoding="UTF-8" standalone="no"?>
<svg
   version="1.1"
   viewBox="0 0 223.6557 250.29037"
   fill="none"
   stroke="none"
   stroke-linecap="square"
   stroke-miterlimit="10"
   id="svg20"
   sodipodi:docname="logo-w-g-w-w.svg"
   inkscape:version="1.4 (e7c3feb1, 2024-10-09)"
   width="223.6557"
   height="250.29037"
   xmlns:inkscape="http://www.inkscape.org/namespaces/inkscape"
   xmlns:sodipodi="http://sodipodi.sourceforge.net/DTD/sodipodi-0.dtd"
   xmlns="http://www.w3.org/2000/svg"
   xmlns:svg="http://www.w3.org/2000/svg">
  <sodipodi:namedview
     id="namedview1"
     pagecolor="#ffffff"
     bordercolor="#000000"
     borderopacity="0.25"
     inkscape:showpageshadow="2"
     inkscape:pageopacity="0.0"
     inkscape:pagecheckerboard="0"
     inkscape:deskcolor="#d1d1d1"
     inkscape:zoom="1.2194444"
     inkscape:cx="327.19818"
     inkscape:cy="266.51481"
     inkscape:window-width="1200"
     inkscape:window-height="1027"
     inkscape:window-x="0"
     inkscape:window-y="25"
     inkscape:window-maximized="0"
     inkscape:current-layer="g20" />
  <defs
     id="defs20" />
  <clipPath
     id="g333c1216808_0_112.0">
    <path
       d="M 0,0 H 1280 V 720 H 0 Z"
       clip-rule="nonzero"
       id="path1" />
  </clipPath>
  <g
     clip-path="url(#g333c1216808_0_112.0)"
     id="g20"
     transform="matrix(0.8342803,0,0,0.81481481,-147.87878,-50.909098)">
    <path
       fill="#36d150"
       d="m 318.37736,69.671726 122.95795,62.959444 v 75.748 l -123.92615,-0.98376 z"
       fill-rule="evenodd"
       id="top-right-fill" />
    <path
       stroke="#082836"
       stroke-width="8"
       stroke-miterlimit="800"
       stroke-linecap="butt"
       d="m 318.37736,69.671726 122.95795,62.959444 v 75.748 l -123.92615,-0.98376 z"
       fill-rule="evenodd"
       id="path4" />
    <path
       fill="#ffffff"
       d="M 304.21103,361.82296 181.25311,298.86352 V 223.1155 l 123.92612,0.98376 z"
       fill-rule="evenodd"
       id="bottom-left-fill" />
    <path
       stroke="#082836"
       stroke-width="8"
       stroke-miterlimit="800"
       stroke-linecap="butt"
       d="M 304.21103,361.82296 181.25311,298.86352 V 223.1155 l 123.92612,0.98376 z"
       fill-rule="evenodd"
       id="path6" />
    <path
       fill="#ffffff"
       d="M 304.56643,68.997976 181.60848,131.95742 v 75.748 l 123.92615,-0.98376 z"
       fill-rule="evenodd"
       id="top-left-fill" />
    <path
       stroke="#082836"
       stroke-width="8"
       stroke-miterlimit="800"
       stroke-linecap="butt"
       d="M 304.56643,68.997976 181.60848,131.95742 v 75.748 l 123.92615,-0.98376 z"
       fill-rule="evenodd"
       id="path8" />
    <path
       fill="#ffffff"
       d="m 318.37733,363.13528 122.95795,-62.95944 v -75.74802 l -123.92615,0.98376 z"
       fill-rule="evenodd"
       id="bottom-right-fill" />
    <path
       stroke="#082836"
       stroke-width="8"
       stroke-miterlimit="800"
       stroke-linecap="butt"
       d="m 318.37733,363.13528 122.95795,-62.95944 v -75.74802 l -123.92615,0.98376 z"
       fill-rule="evenodd"
       id="path10" />
    <path
       fill="#ffffff"
       d="m 240.77769,216.06663 v 0 c 0,-39.57143 31.57135,-71.65041 70.51654,-71.65041 v 0 c 18.70215,0 36.63831,7.54886 49.86273,20.98592 13.22437,13.43706 20.65381,31.66162 20.65381,50.66449 v 0 c 0,39.57143 -31.57135,71.65038 -70.51654,71.65038 v 0 c -38.94519,0 -70.51654,-32.07895 -70.51654,-71.65038 z"
       fill-rule="evenodd"
       id="path11" />
    <path
       stroke="#000000"
       stroke-width="26.6667"
       stroke-miterlimit="800"
       stroke-linecap="butt"
       d="m 240.77769,216.06663 v 0 c 0,-39.57143 31.57135,-71.65041 70.51654,-71.65041 v 0 c 18.70215,0 36.63831,7.54886 49.86273,20.98592 13.22437,13.43706 20.65381,31.66162 20.65381,50.66449 v 0 c 0,39.57143 -31.57135,71.65038 -70.51654,71.65038 v 0 c -38.94519,0 -70.51654,-32.07895 -70.51654,-71.65038 z"
       fill-rule="evenodd"
       id="path12" />
    <path
       fill="#000000"
       fill-opacity="0"
       d="m 370.32518,216.06532 h 60.44098"
       fill-rule="evenodd"
       id="path13" />
    <path
       stroke="#0e2841"
       stroke-width="12"
       stroke-linejoin="round"
       stroke-linecap="butt"
       d="m 370.32518,216.06532 h 60.44098"
       fill-rule="evenodd"
       id="path14" />
    <path
       fill="#000000"
       fill-opacity="0"
       d="m 251.21863,216.06532 h -60.5669"
       fill-rule="evenodd"
       id="path15" />
    <path
       stroke="#0e2841"
       stroke-width="12"
       stroke-linejoin="round"
       stroke-linecap="butt"
       d="m 251.21863,216.06532 h -60.5669"
       fill-rule="evenodd"
       id="path16" />
    <path
       fill="#000000"
       fill-opacity="0"
       d="m 311.29423,275.68288 v 60.44095"
       fill-rule="evenodd"
       id="path17" />
    <path
       stroke="#0e2841"
       stroke-width="12"
       stroke-linejoin="round"
       stroke-linecap="butt"
       d="m 311.29423,275.68288 v 60.44095"
       fill-rule="evenodd"
       id="path18" />
    <path
       fill="#000000"
       fill-opacity="0"
       d="M 311.29423,156.57634 V 96.009406"
       fill-rule="evenodd"
       id="path19" />
    <path
       stroke="#0e2841"
       stroke-width="12"
       stroke-linejoin="round"
       stroke-linecap="butt"
       d="M 311.29423,156.57634 V 96.009406"
       fill-rule="evenodd"
       id="path20" />
  </g>
</svg>
